# xmcd
#
# Track frame offsets:
#	300
#	16931
#	35254
#	44521
#	69655
#	87249
#	107345
#	123467
#	145045
#
# Disc length: 2466 seconds
#
# Revision: 1
# Processed by: cddbd v1.5.2PL0 Copyright (c) Steve Scherf et al.
# Submitted via: audiograbber 1.82.02
#
DISCID=71099e09
DTITLE=Cadence - Down Town Senate
DYEAR=2005
DGENRE=
TTITLE0=Memphis
TTITLE1=Earthbound
TTITLE2=4 leaf
TTITLE3=Seven
TTITLE4=Self-deprecation blues
TTITLE5=W.E.B.
TTITLE6=Hell I have to pay
TTITLE7=Carolina Blue
TTITLE8=Let me wake
EXTD=
EXTT0=
EXTT1=
EXTT2=
EXTT3=
EXTT4=
EXTT5=
EXTT6=
EXTT7=
EXTT8=
PLAYORDER=
